HIERARCHY
ROOT Hips
{
	OFFSET 0.000000 89.005402 0.000000
	CHANNELS 6 Xposition Yposition Zposition Xrotation Yrotation Zrotation
	JOINT Spine
	{
		OFFSET 0.116900 10.681000 0.373400
		CHANNELS 3 Xrotation Yrotation Zrotation
		JOINT Spine1
		{
			OFFSET 0.000000 13.840401 0.053500
			CHANNELS 3 Xrotation Yrotation Zrotation
			JOINT Spine2
			{
				OFFSET 0.000000 14.712700 -0.366200
				CHANNELS 3 Xrotation Yrotation Zrotation
				JOINT Neck
				{
					OFFSET 0.000000 35.415497 -3.314200
					CHANNELS 3 Xrotation Yrotation Zrotation
					JOINT Head
					{
						OFFSET 0.000000 16.899200 1.218300
						CHANNELS 3 Xrotation Yrotation Zrotation
						JOINT HeadTop_End
						{
							OFFSET 0.000000 22.206207 2.192500
							CHANNELS 3 Xrotation Yrotation Zrotation
							End Site
							{
								OFFSET 0.000000 22.314178 0.000000
							}
						}
					}
				}
				JOINT LeftShoulder
				{
					OFFSET 12.896400 26.716293 -4.548400
					CHANNELS 3 Xrotation Yrotation Zrotation
					JOINT LeftArm
					{
						OFFSET 19.027000 -4.857010 -1.718400
						CHANNELS 3 Xrotation Yrotation Zrotation
						JOINT LeftForeArm
						{
							OFFSET 24.179897 0.000000 0.000000
							CHANNELS 3 Xrotation Yrotation Zrotation
							JOINT LeftHand
							{
								OFFSET 27.156403 0.000000 0.000000
								CHANNELS 3 Xrotation Yrotation Zrotation
								JOINT LeftHandIndex1
								{
									OFFSET 16.441200 0.000000 0.000000
									CHANNELS 3 Xrotation Yrotation Zrotation
									JOINT LeftHandIndex2
									{
										OFFSET 4.821899 0.000000 0.000000
										CHANNELS 3 Xrotation Yrotation Zrotation
										JOINT LeftHandIndex3
										{
											OFFSET 6.386497 0.000000 0.000000
											CHANNELS 3 Xrotation Yrotation Zrotation
											JOINT LeftHandIndex4
											{
												OFFSET 5.188988 0.000000 0.000000
												CHANNELS 3 Xrotation Yrotation Zrotation
												End Site
												{
													OFFSET -0.178703 5.185913 0.000177
												}
											}
										}
									}
								}
								JOINT LeftHandThumb1
								{
									OFFSET 6.534897 -5.032593 5.900300
									CHANNELS 3 Xrotation Yrotation Zrotation
									JOINT LeftHandThumb2
									{
										OFFSET 3.818176 -2.204422 2.204423
										CHANNELS 3 Xrotation Yrotation Zrotation
										JOINT LeftHandThumb3
										{
											OFFSET 3.252098 -1.877594 1.877601
											CHANNELS 3 Xrotation Yrotation Zrotation
											JOINT LeftHandThumb4
											{
												OFFSET 5.251778 -3.032120 3.032117
												CHANNELS 3 Xrotation Yrotation Zrotation
												End Site
												{
													OFFSET 0.000023 6.780014 0.000000
												}
											}
										}
									}
								}
							}
						}
					}
				}
				JOINT RightShoulder
				{
					OFFSET -12.896300 26.716293 -4.548400
					CHANNELS 3 Xrotation Yrotation Zrotation
					JOINT RightArm
					{
						OFFSET -19.027000 -4.857010 -1.718400
						CHANNELS 3 Xrotation Yrotation Zrotation
						JOINT RightForeArm
						{
							OFFSET -24.179897 0.000000 0.000000
							CHANNELS 3 Xrotation Yrotation Zrotation
							JOINT RightHand
							{
								OFFSET -27.156403 0.000000 0.000000
								CHANNELS 3 Xrotation Yrotation Zrotation
								JOINT RightHandThumb1
								{
									OFFSET -6.591202 -4.852203 5.988100
									CHANNELS 3 Xrotation Yrotation Zrotation
									JOINT RightHandThumb2
									{
										OFFSET -3.818176 -2.204422 2.204423
										CHANNELS 3 Xrotation Yrotation Zrotation
										JOINT RightHandThumb3
										{
											OFFSET -3.252098 -1.877594 1.877601
											CHANNELS 3 Xrotation Yrotation Zrotation
											JOINT RightHandThumb4
											{
												OFFSET -5.251778 -3.032120 3.032117
												CHANNELS 3 Xrotation Yrotation Zrotation
												End Site
												{
													OFFSET -0.000023 6.780014 0.000000
												}
											}
										}
									}
								}
								JOINT RightHandIndex1
								{
									OFFSET -16.029404 0.000000 0.000000
									CHANNELS 3 Xrotation Yrotation Zrotation
									JOINT RightHandIndex2
									{
										OFFSET -5.213303 0.000000 0.000000
										CHANNELS 3 Xrotation Yrotation Zrotation
										JOINT RightHandIndex3
										{
											OFFSET -6.386528 0.000000 0.000000
											CHANNELS 3 Xrotation Yrotation Zrotation
											JOINT RightHandIndex4
											{
												OFFSET -5.189026 0.000000 0.000000
												CHANNELS 3 Xrotation Yrotation Zrotation
												End Site
												{
													OFFSET 0.236702 5.183624 0.001972
												}
											}
										}
									}
								}
							}
						}
					}
				}
			}
		}
	}
	JOINT LeftUpLeg
	{
		OFFSET 14.073000 -7.904099 -1.463000
		CHANNELS 3 Xrotation Yrotation Zrotation
		JOINT LeftLeg
		{
			OFFSET -0.109806 -34.073280 4.093200
			CHANNELS 3 Xrotation Yrotation Zrotation
			JOINT LeftFoot
			{
				OFFSET 0.109806 -29.899420 -6.319000
				CHANNELS 3 Xrotation Yrotation Zrotation
				JOINT LeftToeBase
				{
					OFFSET 1.551100 -14.988700 20.535801
					CHANNELS 3 Xrotation Yrotation Zrotation
					JOINT LeftToe_End
					{
						OFFSET 0.221200 0.570800 13.248301
						CHANNELS 3 Xrotation Yrotation Zrotation
						End Site
						{
							OFFSET 0.000000 13.262435 0.000000
						}
					}
				}
			}
		}
	}
	JOINT RightUpLeg
	{
		OFFSET -13.839300 -7.904099 -1.463000
		CHANNELS 3 Xrotation Yrotation Zrotation
		JOINT RightLeg
		{
			OFFSET 0.109694 -34.073219 4.093300
			CHANNELS 3 Xrotation Yrotation Zrotation
			JOINT RightFoot
			{
				OFFSET -0.109694 -29.899384 -6.319200
				CHANNELS 3 Xrotation Yrotation Zrotation
				JOINT RightToeBase
				{
					OFFSET -1.551100 -14.988700 20.535801
					CHANNELS 3 Xrotation Yrotation Zrotation
					JOINT RightToe_End
					{
						OFFSET -0.221200 0.570900 13.248299
						CHANNELS 3 Xrotation Yrotation Zrotation
						End Site
						{
							OFFSET 0.000000 13.262440 0.000000
						}
					}
				}
			}
		}
	}
}
MOTION
Frames: 4
Frame Time: 0.033333
-8.295776 41.930702 -3.127822 14.248273 -73.270526 14.061672 15.336362 -11.294679 -10.551556 0.587376 -5.666524 -4.178306 0.671973 -5.700202 -4.072422 2.451147 14.577873 10.439899 -9.007548 52.787489 -15.655927 0.000000 -0.000001 -0.000000 11.208002 -44.655319 43.466525 -96.230262 11.056446 -37.136538 -63.775546 -40.899661 -53.053190 -5.215049 -26.497065 -19.445368 0.219068 -1.621418 -97.153943 2.207767 -1.384317 -60.043845 1.089982 1.621922 -33.417715 -0.000002 -0.000001 -0.000000 17.227634 17.613449 -11.396943 17.091217 14.422376 25.539530 31.236938 29.670919 12.025589 -0.000003 -0.000001 -0.000002 29.916980 37.151820 -65.342480 -71.676538 12.027443 5.977667 40.184486 75.884242 -39.642804 -5.498535 -14.778928 -34.752163 9.347159 2.810570 -11.364524 16.169068 -43.266018 15.843585 32.491821 -44.566762 5.661140 0.000002 0.000000 0.000000 17.076774 -0.396542 31.924359 -0.204397 -0.284213 112.811564 1.553137 -1.173050 33.344550 -0.000001 -0.000001 0.000000 -65.582343 -23.683000 59.795315 75.006221 -4.396563 4.583807 15.943519 -2.303028 -40.567837 -0.649227 -1.243626 0.304349 -0.000000 0.000002 -0.000000 -81.793284 0.553144 -29.934489 139.700359 19.644584 2.293999 -40.221119 6.256967 -14.825004 -26.980156 6.530971 -3.989573 0.000000 -0.000001 -0.000000 
-8.212035 41.826317 -3.289926 13.424633 -71.403460 12.711236 15.479927 -11.239087 -9.995719 0.451511 -5.888248 -3.866963 0.531701 -5.928643 -3.734445 3.696802 14.637382 11.459495 -8.437071 52.723767 -16.613329 -0.000000 -0.000001 0.000000 11.018239 -46.515569 39.998387 -91.831770 7.756114 -37.240275 -63.127989 -40.022149 -52.824458 -5.256841 -28.109922 -18.633663 0.638334 -1.568642 -97.921301 2.179689 -1.328704 -58.586911 1.118720 1.590226 -33.928145 0.000001 -0.000000 -0.000000 17.126597 17.231901 -11.065183 11.997981 14.188377 23.553120 30.878875 31.563387 14.996117 0.000002 -0.000001 0.000003 26.729819 37.125234 -60.738209 -71.681838 12.439146 10.768119 49.116266 75.906392 -46.665840 -6.003109 -14.452387 -35.086917 9.704201 3.828012 -10.432907 15.512406 -40.850340 17.148875 32.735813 -44.912226 8.798474 -0.000000 -0.000001 0.000001 17.078494 -0.427846 31.928249 -0.204398 -0.284215 112.811564 1.552024 -1.155369 33.343559 -0.000000 0.000002 -0.000003 -67.905502 -24.806960 58.191313 74.316925 -4.588902 4.500859 17.265774 -2.834815 -39.386228 -0.649064 -1.243621 0.303962 -0.000000 -0.000001 -0.000000 -80.540272 -1.262953 -31.413549 140.011816 19.178065 2.222760 -42.182227 6.787575 -14.983772 -26.980139 6.531018 -3.989579 -0.000001 0.000000 0.000001 
-8.108289 41.753265 -3.527483 12.781170 -69.421817 11.507463 15.620998 -11.126570 -9.408208 0.315321 -6.088637 -3.570008 0.389127 -6.135540 -3.411358 4.925551 14.715511 12.512633 -7.820933 52.730204 -17.472010 0.000001 -0.000001 -0.000000 10.148730 -48.412200 36.040521 -87.554043 4.995975 -37.565914 -62.020781 -39.457494 -52.167339 -5.175252 -29.269492 -17.998575 1.058881 -1.528215 -98.688222 2.150240 -1.275406 -57.129949 1.146968 1.557995 -34.438521 -0.000002 -0.000001 -0.000000 17.027090 16.851479 -10.733746 6.949139 14.196700 21.490159 30.421898 33.464242 18.036525 -0.000001 0.000001 -0.000001 23.544745 36.950569 -56.114871 -71.047027 12.708520 15.415273 54.900289 76.105041 -50.881177 -6.125011 -13.800654 -35.381121 10.035183 4.713134 -9.634988 14.625045 -38.891951 18.130315 33.056903 -45.420406 11.961879 0.000001 0.000001 -0.000000 17.080228 -0.454343 31.931380 -0.204395 -0.284213 112.811571 1.550871 -1.140459 33.342665 -0.000000 -0.000001 0.000002 -70.393794 -25.761477 56.445943 73.327101 -4.796449 4.343064 18.816966 -3.407970 -38.042091 -0.648875 -1.243615 0.303582 -0.000000 -0.000001 -0.000000 -79.291919 -3.355440 -32.694265 140.260380 18.478578 2.139056 -44.298640 7.261808 -15.014655 -26.980157 6.530972 -3.989571 0.000000 -0.000001 -0.000000 
-7.991716 41.689140 -3.576439 12.293346 -67.042077 10.386578 15.718239 -10.829425 -8.685892 0.186462 -6.117374 -3.369230 0.248846 -6.168684 -3.194275 6.184472 14.820358 13.672446 -7.700158 52.878642 -17.537593 -0.000000 -0.000001 0.000001 8.750674 -49.961065 31.167741 -82.943140 3.400904 -38.465453 -60.523495 -39.679151 -51.646776 -4.817323 -29.359230 -16.686555 1.480555 -1.499330 -99.454385 2.119521 -1.224455 -55.672974 1.174731 1.525264 -34.948859 -0.000000 -0.000000 -0.000000 16.929541 16.473095 -10.401842 1.947846 14.464828 19.374305 29.914121 35.442378 21.134714 -0.000000 0.000000 0.000003 20.504926 37.145280 -50.810638 -68.442764 13.742343 19.707753 51.476609 77.725811 -47.139141 -5.204493 -12.646573 -35.437064 10.378104 5.436087 -9.026329 13.661300 -37.351982 18.790812 33.800287 -46.222537 14.647373 0.000000 -0.000002 -0.000001 17.081871 -0.476022 31.933849 -0.204390 -0.284212 112.811564 1.549727 -1.128253 33.341944 0.000003 -0.000002 0.000000 -73.890933 -26.498424 54.221576 72.598333 -5.419380 4.042341 20.353716 -3.810114 -36.010868 -0.648706 -1.243594 0.303198 -0.000000 0.000001 -0.000000 -77.467411 -4.906629 -34.489317 140.357614 18.645001 2.244296 -46.646504 7.650772 -14.748349 -26.980125 6.530982 -3.989582 0.000001 0.000001 0.000000 
